<?xml version="1.0" standalone="no"?>
<svg viewBox="0 0 200 200" xmlns="http://www.w3.org/2000/svg">
  <path fill="#CEFA05" d="M38.1,-60.6C41.2,-57.2,29.9,-32.9,33.5,-17.5C37.2,-2.1,55.8,4.3,55.3,8C54.9,11.7,35.3,12.7,26.2,22C17.1,31.4,18.4,49.2,11.7,60.4C5.1,71.7,-9.4,76.5,-16,68.3C-22.6,60.1,-21.4,38.7,-30.1,27C-38.8,15.3,-57.6,13.1,-62.9,6.3C-68.2,-0.6,-60.1,-12.2,-51.7,-20.7C-43.3,-29.3,-34.7,-34.9,-26,-35.7C-17.3,-36.5,-8.7,-32.5,4.4,-39.4C17.5,-46.3,35,-63.9,38.1,-60.6Z" transform="translate(100 100)" />
</svg>
